<svg width="86" height="71" viewBox="0 0 86 71" fill="none" xmlns="http://www.w3.org/2000/svg">
<path d="M39.9759 70.3765C59.4098 70.3765 75.1641 54.6222 75.1641 35.1883C75.1641 15.7543 59.4098 0 39.9759 0C20.5419 0 4.7876 15.7543 4.7876 35.1883C4.7876 54.6222 20.5419 70.3765 39.9759 70.3765Z" fill="#0B3D91"/>
<path d="M37.8974 7.15323C38.1153 7.15323 38.2919 6.97661 38.2919 6.75874C38.2919 6.54088 38.1153 6.36426 37.8974 6.36426C37.6795 6.36426 37.5029 6.54088 37.5029 6.75874C37.5029 6.97661 37.6795 7.15323 37.8974 7.15323Z" fill="white"/>
<path d="M41.9472 7.67911C42.1651 7.67911 42.3417 7.50249 42.3417 7.28462C42.3417 7.06675 42.1651 6.89014 41.9472 6.89014C41.7294 6.89014 41.5527 7.06675 41.5527 7.28462C41.5527 7.50249 41.7294 7.67911 41.9472 7.67911Z" fill="white"/>
<path d="M47.2597 14.8319C47.4776 14.8319 47.6542 14.6553 47.6542 14.4375C47.6542 14.2196 47.4776 14.043 47.2597 14.043C47.0419 14.043 46.8652 14.2196 46.8652 14.4375C46.8652 14.6553 47.0419 14.8319 47.2597 14.8319Z" fill="white"/>
<path d="M18.1201 51.6503C18.3379 51.6503 18.5146 51.4737 18.5146 51.2558C18.5146 51.0379 18.3379 50.8613 18.1201 50.8613C17.9022 50.8613 17.7256 51.0379 17.7256 51.2558C17.7256 51.4737 17.9022 51.6503 18.1201 51.6503Z" fill="white"/>
<path d="M19.1464 54.8065C19.3643 54.8065 19.5409 54.6299 19.5409 54.4121C19.5409 54.1942 19.3643 54.0176 19.1464 54.0176C18.9286 54.0176 18.752 54.1942 18.752 54.4121C18.752 54.6299 18.9286 54.8065 19.1464 54.8065Z" fill="white"/>
<path d="M14.2549 52.0264C14.4181 52.0264 14.5503 51.8941 14.5503 51.731C14.5503 51.5678 14.4181 51.4355 14.2549 51.4355C14.0917 51.4355 13.9595 51.5678 13.9595 51.731C13.9595 51.8941 14.0917 52.0264 14.2549 52.0264Z" fill="white"/>
<path d="M30.2983 58.2264C30.4619 58.2264 30.5946 58.0937 30.5946 57.9301C30.5946 57.7665 30.4619 57.6338 30.2983 57.6338C30.1346 57.6338 30.002 57.7665 30.002 57.9301C30.002 58.0937 30.1346 58.2264 30.2983 58.2264Z" fill="white"/>
<path d="M55.4585 52.9991C55.6217 52.9991 55.7539 52.8668 55.7539 52.7036C55.7539 52.5405 55.6217 52.4082 55.4585 52.4082C55.2954 52.4082 55.1631 52.5405 55.1631 52.7036C55.1631 52.8668 55.2954 52.9991 55.4585 52.9991Z" fill="white"/>
<path d="M62.7699 45.0584C62.9336 45.0584 63.0662 44.9258 63.0662 44.7621C63.0662 44.5985 62.9336 44.4658 62.7699 44.4658C62.6063 44.4658 62.4736 44.5985 62.4736 44.7621C62.4736 44.9258 62.6063 45.0584 62.7699 45.0584Z" fill="white"/>
<path d="M26.9307 17.041C27.0938 17.041 27.2261 16.9088 27.2261 16.7456C27.2261 16.5825 27.0938 16.4502 26.9307 16.4502C26.7675 16.4502 26.6353 16.5825 26.6353 16.7456C26.6353 16.9088 26.7675 17.041 26.9307 17.041Z" fill="white"/>
<path d="M34.9785 11.1309C35.1417 11.1309 35.274 10.9986 35.274 10.8355C35.274 10.6723 35.1417 10.54 34.9785 10.54C34.8154 10.54 34.6831 10.6723 34.6831 10.8355C34.6831 10.9986 34.8154 11.1309 34.9785 11.1309Z" fill="white"/>
<path d="M34.105 10.5508C34.2682 10.5508 34.4004 10.4185 34.4004 10.2554C34.4004 10.0922 34.2682 9.95996 34.105 9.95996C33.9418 9.95996 33.8096 10.0922 33.8096 10.2554C33.8096 10.4185 33.9418 10.5508 34.105 10.5508Z" fill="white"/>
<path d="M33.3154 9.97415C33.4786 9.97415 33.6109 9.84189 33.6109 9.67873C33.6109 9.51557 33.4786 9.3833 33.3154 9.3833C33.1523 9.3833 33.02 9.51557 33.02 9.67873C33.02 9.84189 33.1523 9.97415 33.3154 9.97415Z" fill="white"/>
<path d="M28.1934 18.5664C28.3565 18.5664 28.4888 18.4342 28.4888 18.271C28.4888 18.1079 28.3565 17.9756 28.1934 17.9756C28.0302 17.9756 27.8979 18.1079 27.8979 18.271C27.8979 18.4342 28.0302 18.5664 28.1934 18.5664Z" fill="white"/>
<path d="M40.0464 3.18851C40.2096 3.18851 40.3418 3.05624 40.3418 2.89308C40.3418 2.72992 40.2096 2.59766 40.0464 2.59766C39.8832 2.59766 39.751 2.72992 39.751 2.89308C39.751 3.05624 39.8832 3.18851 40.0464 3.18851Z" fill="white"/>
<path d="M41.9946 11.71C42.1578 11.71 42.2901 11.5777 42.2901 11.4146C42.2901 11.2514 42.1578 11.1191 41.9946 11.1191C41.8315 11.1191 41.6992 11.2514 41.6992 11.4146C41.6992 11.5777 41.8315 11.71 41.9946 11.71Z" fill="white"/>
<path d="M38.9238 10.045C39.087 10.045 39.2193 9.91269 39.2193 9.74953C39.2193 9.58637 39.087 9.4541 38.9238 9.4541C38.7607 9.4541 38.6284 9.58637 38.6284 9.74953C38.6284 9.91269 38.7607 10.045 38.9238 10.045Z" fill="white"/>
<path d="M33.6626 12.3077C33.8258 12.3077 33.958 12.1754 33.958 12.0122C33.958 11.8491 33.8258 11.7168 33.6626 11.7168C33.4995 11.7168 33.3672 11.8491 33.3672 12.0122C33.3672 12.1754 33.4995 12.3077 33.6626 12.3077Z" fill="white"/>
<path d="M56.8589 60.8037C57.0221 60.8037 57.1543 60.6715 57.1543 60.5083C57.1543 60.3452 57.0221 60.2129 56.8589 60.2129C56.6957 60.2129 56.5635 60.3452 56.5635 60.5083C56.5635 60.6715 56.6957 60.8037 56.8589 60.8037Z" fill="white"/>
<path d="M17.621 53.5526C17.7847 53.5526 17.9173 53.4199 17.9173 53.2563C17.9173 53.0926 17.7847 52.96 17.621 52.96C17.4574 52.96 17.3247 53.0926 17.3247 53.2563C17.3247 53.4199 17.4574 53.5526 17.621 53.5526Z" fill="white"/>
<path d="M38.1874 57.3651C38.3511 57.3651 38.4837 57.2324 38.4837 57.0688C38.4837 56.9051 38.3511 56.7725 38.1874 56.7725C38.0238 56.7725 37.8911 56.9051 37.8911 57.0688C37.8911 57.2324 38.0238 57.3651 38.1874 57.3651Z" fill="white"/>
<path d="M23.7431 53.3153C23.9067 53.3153 24.0394 53.1826 24.0394 53.019C24.0394 52.8553 23.9067 52.7227 23.7431 52.7227C23.5794 52.7227 23.4468 52.8553 23.4468 53.019C23.4468 53.1826 23.5794 53.3153 23.7431 53.3153Z" fill="white"/>
<path d="M26.2992 57.4915C26.4629 57.4915 26.5955 57.3589 26.5955 57.1952C26.5955 57.0316 26.4629 56.8989 26.2992 56.8989C26.1356 56.8989 26.0029 57.0316 26.0029 57.1952C26.0029 57.3589 26.1356 57.4915 26.2992 57.4915Z" fill="white"/>
<path d="M45.1304 54.8594C45.2935 54.8594 45.4258 54.7271 45.4258 54.564C45.4258 54.4008 45.2935 54.2686 45.1304 54.2686C44.9672 54.2686 44.835 54.4008 44.835 54.564C44.835 54.7271 44.9672 54.8594 45.1304 54.8594Z" fill="white"/>
<path d="M55.5108 49.002C55.6739 49.002 55.8062 48.8697 55.8062 48.7066C55.8062 48.5434 55.6739 48.4111 55.5108 48.4111C55.3476 48.4111 55.2153 48.5434 55.2153 48.7066C55.2153 48.8697 55.3476 49.002 55.5108 49.002Z" fill="white"/>
<path d="M63.3819 52.5977C63.545 52.5977 63.6773 52.4654 63.6773 52.3023C63.6773 52.1391 63.545 52.0068 63.3819 52.0068C63.2187 52.0068 63.0864 52.1391 63.0864 52.3023C63.0864 52.4654 63.2187 52.5977 63.3819 52.5977Z" fill="white"/>
<path d="M66.065 54.3145C66.2281 54.3145 66.3604 54.1822 66.3604 54.0191C66.3604 53.8559 66.2281 53.7236 66.065 53.7236C65.9018 53.7236 65.7695 53.8559 65.7695 54.0191C65.7695 54.1822 65.9018 54.3145 66.065 54.3145Z" fill="white"/>
<path d="M66.5049 49.6328C66.6681 49.6328 66.8003 49.5006 66.8003 49.3374C66.8003 49.1743 66.6681 49.042 66.5049 49.042C66.3417 49.042 66.2095 49.1743 66.2095 49.3374C66.2095 49.5006 66.3417 49.6328 66.5049 49.6328Z" fill="white"/>
<path d="M27.3716 43.0059C27.5348 43.0059 27.667 42.8736 27.667 42.7105C27.667 42.5473 27.5348 42.415 27.3716 42.415C27.2084 42.415 27.0762 42.5473 27.0762 42.7105C27.0762 42.8736 27.2084 43.0059 27.3716 43.0059Z" fill="white"/>
<path d="M27.4829 49.8896C27.7007 49.8896 27.8774 49.7129 27.8774 49.4951C27.8774 49.2772 27.7007 49.1006 27.4829 49.1006C27.265 49.1006 27.0884 49.2772 27.0884 49.4951C27.0884 49.7129 27.265 49.8896 27.4829 49.8896Z" fill="white"/>
<path d="M29.8505 54.8866C30.0684 54.8866 30.245 54.71 30.245 54.4921C30.245 54.2743 30.0684 54.0977 29.8505 54.0977C29.6327 54.0977 29.4561 54.2743 29.4561 54.4921C29.4561 54.71 29.6327 54.8866 29.8505 54.8866Z" fill="white"/>
<path d="M58.2011 49.6796C58.419 49.6796 58.5956 49.503 58.5956 49.2851C58.5956 49.0672 58.419 48.8906 58.2011 48.8906C57.9833 48.8906 57.8066 49.0672 57.8066 49.2851C57.8066 49.503 57.9833 49.6796 58.2011 49.6796Z" fill="white"/>
<path d="M68.4038 49.1005C68.6216 49.1005 68.7983 48.9239 68.7983 48.706C68.7983 48.4881 68.6216 48.3115 68.4038 48.3115C68.1859 48.3115 68.0093 48.4881 68.0093 48.706C68.0093 48.9239 68.1859 49.1005 68.4038 49.1005Z" fill="white"/>
<path d="M63.354 46.9438C63.5718 46.9438 63.7484 46.7671 63.7484 46.5493C63.7484 46.3314 63.5718 46.1548 63.354 46.1548C63.1361 46.1548 62.9595 46.3314 62.9595 46.5493C62.9595 46.7671 63.1361 46.9438 63.354 46.9438Z" fill="white"/>
<path d="M58.2011 47.1532C58.419 47.1532 58.5956 46.9766 58.5956 46.7587C58.5956 46.5409 58.419 46.3643 58.2011 46.3643C57.9833 46.3643 57.8066 46.5409 57.8066 46.7587C57.8066 46.9766 57.9833 47.1532 58.2011 47.1532Z" fill="white"/>
<path d="M47.5678 6.51109L48.5488 6.41729L47.5696 6.36206C47.5389 6.17271 47.3873 6.02456 47.1962 6.00001L47.1024 5.02344L47.0462 6.0079C46.8692 6.04735 46.7333 6.1955 46.7114 6.3796L45.7085 6.47077L46.7184 6.52512C46.7552 6.69431 46.892 6.82668 47.0638 6.85824L47.1549 7.86462L47.2084 6.86C47.3899 6.82931 47.5337 6.68993 47.5678 6.51109Z" fill="white"/>
<path d="M31.0117 17.433L31.9927 17.3392L31.0134 17.2839C30.9836 17.0946 30.8311 16.9464 30.64 16.9219L30.5462 15.9453L30.491 16.9298C30.313 16.9692 30.1771 17.1174 30.1552 17.3015L29.1523 17.3926L30.1622 17.447C30.1991 17.6162 30.3358 17.7486 30.5076 17.7801L30.5988 18.7865L30.6532 17.7819C30.8346 17.7521 30.9784 17.6118 31.0117 17.433Z" fill="white"/>
<path d="M67.6866 46.3089L68.6676 46.2151L67.6884 46.1599C67.6585 45.9706 67.506 45.8224 67.3149 45.7979L67.2211 44.8213L67.1659 45.8058C66.9888 45.8452 66.8529 45.9934 66.831 46.1774L65.8281 46.2686L66.838 46.323C66.8748 46.4922 67.0116 46.6245 67.1834 46.6561L67.2746 47.6625L67.3289 46.6578C67.5086 46.628 67.6524 46.4887 67.6866 46.3089Z" fill="white"/>
<path d="M27.6992 61.4038L28.6802 61.31L27.7009 61.2547C27.6703 61.0654 27.5186 60.9172 27.3275 60.8927L27.2337 59.917L27.1785 60.9006C27.0005 60.94 26.8646 61.0882 26.8427 61.2723L25.8398 61.3634L26.8497 61.4178C26.8866 61.587 27.0233 61.7202 27.1951 61.7509L27.2863 62.7573L27.3406 61.7527C27.5212 61.7229 27.6659 61.5826 27.6992 61.4038Z" fill="white"/>
<path d="M64.5694 54.0419L65.5504 53.9481L64.5712 53.8928C64.5414 53.7035 64.3888 53.5553 64.1977 53.5308L64.1039 52.5542L64.0487 53.5378C63.8716 53.5772 63.7357 53.7254 63.7138 53.9095L62.7109 54.0007L63.7208 54.055C63.7576 54.2242 63.8944 54.3566 64.0662 54.3881L64.1574 55.3945L64.2117 54.3899C64.3915 54.361 64.5361 54.2207 64.5694 54.0419Z" fill="white"/>
<path d="M48.3203 26.7601C44.229 28.3503 40.2386 29.7696 36.8714 30.8233C30.0293 32.9658 11.3086 38.7656 0 46.0768L0.94677 46.445C7.83715 42.5527 12.3159 41.3298 16.6211 39.9754C21.3023 38.5026 36.4357 34.961 43.2884 33.0324C45.6036 32.3811 48.3151 31.5281 51.1869 30.4902C50.5189 29.5583 49.8141 28.6238 49.0725 27.6911C48.8244 27.3764 48.5728 27.066 48.3203 26.7601ZM53.3189 33.6496C52.3283 34.3185 51.4981 34.8523 50.9169 35.189C47.5506 37.1351 31.1391 48.3385 27.4055 50.9159C23.6719 53.4932 13.3091 63.2765 10.2584 66.1168L10.1532 67.273C19.9891 58.4365 23.0749 56.2572 26.9847 53.2828C31.8237 49.6009 41.8341 42.7894 45.2363 40.6066C48.4886 38.5202 51.4219 36.6012 54.0544 34.8453C54.0115 34.7734 53.9685 34.7015 53.9255 34.6288C53.7274 34.3036 53.5249 33.9774 53.3189 33.6496ZM68.6943 17.4107C63.9026 20.2195 56.3503 23.6094 49.0234 26.4857C49.1987 26.7005 49.3732 26.917 49.5467 27.1353C50.3655 28.1662 51.1378 29.2041 51.8646 30.243C57.6241 28.1215 63.9438 25.2742 68.9581 21.8281C66.5693 24.0916 58.6717 29.994 53.8563 33.284C54.1044 33.6882 54.3446 34.0923 54.5769 34.4947C61.8723 29.6127 66.7814 26.0193 69.6419 23.6165C73.5868 20.3028 82.5811 12.8864 86 2.94531C80.0029 10.5729 72.9127 14.9377 68.6943 17.4107Z" fill="#FC3D21"/>
<path d="M35.4477 43.9006C34.6718 42.924 33.5988 41.616 32.7932 40.6018C31.7158 39.2456 30.7191 37.8754 29.8056 36.507C29.5076 36.5815 29.2104 36.656 28.9132 36.7305C30.016 38.4514 31.2407 40.1696 32.5749 41.8492C33.5497 43.0765 34.436 44.0645 34.8901 44.679C34.9822 44.8035 35.1645 45.0788 35.4109 45.4452C35.6949 45.2523 35.9815 45.0577 36.2708 44.8614C35.9912 44.5572 35.715 44.2372 35.4477 43.9006ZM41.1108 49.0412C40.4734 48.438 38.9279 47.4308 37.3193 45.9195C36.9643 46.1632 36.6057 46.4104 36.2463 46.6593C37.2851 48.1233 38.7 49.9213 39.8081 50.4455C41.4772 51.2363 41.9269 49.8144 41.1108 49.0412ZM49.5466 27.134C40.349 15.5571 29.1131 9.19707 24.2688 13.0464C20.5062 16.0357 22.0509 24.7723 27.2371 33.9498C27.5053 33.8578 27.7709 33.7675 28.0339 33.6781C22.7995 24.7364 21.3671 16.4267 24.9157 13.6066C29.3752 10.0632 40.1429 16.4477 49.0741 27.6889C50.923 30.0155 52.5483 32.3508 53.9246 34.6275C59.1949 43.35 60.8123 51.238 57.1708 54.4579C56.0566 55.4433 52.6517 55.8299 48.1914 53.8224C48.1291 53.9004 48.2291 54.1116 48.3071 54.1634C52.1573 55.7115 55.8453 56.3015 57.7073 54.8226C62.1816 51.267 58.7443 38.7109 49.5466 27.134Z" fill="white"/>
<path d="M10.0996 28.5098H15.9906L20.9349 36.8992C20.9349 36.8992 20.9349 30.8241 20.9349 30.3507C20.9349 29.6143 20.0012 28.6544 19.6725 28.5098C20.067 28.5098 23.5122 28.5098 23.7489 28.5098C23.499 28.5755 22.6969 29.5486 22.6969 30.3507C22.6969 30.7452 22.6969 39.5554 22.6969 39.9762C22.6969 40.5679 23.5516 41.3832 23.9593 41.6988H18.2786L13.2555 33.2699C13.2555 33.2699 13.2555 39.5554 13.2555 39.8973C13.2555 40.5548 13.8998 41.186 14.5705 41.7251H10.2311C10.8491 41.4621 11.4409 40.6337 11.4935 39.9762C11.5461 39.3187 11.4935 30.8372 11.4935 30.4691C11.4935 29.6669 10.7176 29.0094 10.0996 28.5098Z" fill="white"/>
<path d="M63.9869 41.6988H71.8241C71.3901 41.5936 70.9036 41.0808 70.6406 40.397C70.3776 39.7132 66.2224 28.5098 66.2224 28.5098H63.2427C62.3976 29.1182 61.492 29.7599 60.5251 30.4357C60.5225 30.4603 60.5198 30.4848 60.5154 30.5085C60.3857 31.2975 58.0538 39.743 57.9118 40.1603C57.7146 40.7389 56.7021 41.3832 56.2944 41.7251H60.5154C60.0947 41.2517 59.7528 40.7915 59.8317 40.2655C59.9106 39.7395 60.1473 38.6875 60.1473 38.6875H64.5129C64.7102 39.2135 64.8574 39.686 64.9337 40.134C65.0258 40.6731 64.4735 41.278 63.9869 41.6988ZM60.5417 37.0044L62.0145 32.1916L63.9606 37.0044H60.5417ZM59.8781 28.9902C60.0947 28.8306 60.3121 28.6702 60.5286 28.5098H59.3846C59.4985 28.615 59.687 28.7806 59.8781 28.9902Z" fill="white"/>
<path d="M29.903 40.2655C29.9819 39.7395 30.2185 38.6875 30.2185 38.6875H34.5842C34.7815 39.2135 34.9287 39.686 35.005 40.134C35.097 40.6731 34.5448 41.278 34.0582 41.6988H40.9582C41.102 41.6024 41.2449 41.5059 41.3878 41.4104C41.1204 41.1737 40.8741 40.8186 40.7119 40.397C40.4489 39.7132 36.2937 28.5098 36.2937 28.5098H29.4559C29.7846 28.8122 30.7314 29.6275 30.5867 30.5085C30.4579 31.2975 28.1251 39.743 27.9831 40.1603C27.7859 40.7389 26.7734 41.3832 26.3657 41.7251H30.5867C30.166 41.2517 29.8241 40.7915 29.903 40.2655ZM32.0858 32.1916L34.0319 37.0044H30.613L32.0858 32.1916Z" fill="white"/>
<path d="M53.7382 35.0564C52.4513 35.9138 51.0934 36.8088 49.6627 37.7433C50.3044 38.0545 50.8155 38.4455 50.8646 38.9504C50.9558 39.899 49.0499 40.3574 47.3273 40.1602C46.9828 40.1208 46.6444 40.0305 46.3218 39.9095C45.9642 40.14 45.603 40.3724 45.2366 40.6073C44.864 40.8466 44.4116 41.1412 43.8953 41.4813V42.8427C44.2372 42.1721 44.985 41.5716 45.5653 41.5409C45.8151 41.5278 46.683 42.3299 50.2597 42.1326C51.9954 42.0371 55.3486 40.1865 55.296 38.0563C55.2644 36.7974 54.607 35.8156 53.7382 35.0564ZM43.8944 38.3456V39.7324C44.2109 39.5211 44.523 39.3134 44.8289 39.1109C44.3477 38.776 44.0066 38.463 43.8944 38.3456ZM52.5153 34.1859C52.1822 33.9887 51.8447 33.816 51.5212 33.6634C49.838 32.8745 48.076 32.7298 47.7078 31.6647C47.4483 30.9134 48.1812 30.2182 49.9695 30.2445C51.7579 30.2708 53.4147 31.336 53.8618 31.7173V28.3247C53.7303 28.4562 53.1535 29.1181 52.6257 29.0085C51.6132 28.7981 49.8906 28.5237 47.9182 28.5351C45.6565 28.5483 43.7103 30.2963 43.6446 32.5063C43.5525 35.5964 46.0247 36.438 47.4185 36.9245C47.5623 36.9745 47.7262 37.028 47.9042 37.085C49.241 36.2153 50.2983 35.5456 50.9172 35.1888C51.3327 34.9495 51.8771 34.6058 52.5153 34.1859Z" fill="white"/>
</svg>
